<svg width="40" height="40" viewBox="0 0 40 40" fill="none" xmlns="http://www.w3.org/2000/svg">
<circle cx="20" cy="20" r="19" stroke="white" stroke-width="2"/>
<path d="M18.9634 22.5967C18.9744 21.9382 19.0492 21.418 19.1875 21.0361C19.3258 20.6543 19.6081 20.231 20.0342 19.7661L21.1216 18.6455C21.5864 18.1198 21.8188 17.5553 21.8188 16.9521C21.8188 16.3711 21.6667 15.9173 21.3623 15.5908C21.0579 15.2588 20.6152 15.0928 20.0342 15.0928C19.4697 15.0928 19.016 15.2422 18.6729 15.541C18.3298 15.8398 18.1582 16.241 18.1582 16.7446H16.6226C16.6336 15.8481 16.9518 15.126 17.5771 14.5781C18.208 14.0247 19.027 13.748 20.0342 13.748C21.0801 13.748 21.8936 14.0303 22.4746 14.5947C23.0612 15.1536 23.3545 15.9229 23.3545 16.9023C23.3545 17.8708 22.9062 18.8254 22.0098 19.7661L21.105 20.6626C20.701 21.1108 20.499 21.7555 20.499 22.5967H18.9634ZM18.897 25.228C18.897 24.979 18.9717 24.7715 19.1211 24.6055C19.276 24.4339 19.5029 24.3481 19.8018 24.3481C20.1006 24.3481 20.3275 24.4339 20.4824 24.6055C20.6374 24.7715 20.7148 24.979 20.7148 25.228C20.7148 25.4771 20.6374 25.6846 20.4824 25.8506C20.3275 26.0111 20.1006 26.0913 19.8018 26.0913C19.5029 26.0913 19.276 26.0111 19.1211 25.8506C18.9717 25.6846 18.897 25.4771 18.897 25.228Z" fill="white"/>
</svg>
