<svg width="30" height="32" viewBox="0 0 30 32" fill="none" xmlns="http://www.w3.org/2000/svg">
<g filter="url(#filter0_d)">
<path fill-rule="evenodd" clip-rule="evenodd" d="M15 22.0992C18.875 22.0456 21.9998 18.8877 21.9998 14.9999C21.9998 11.0787 18.821 7.8999 14.8998 7.8999C10.9786 7.8999 7.7998 11.0787 7.7998 14.9999C7.7998 16.4835 8.25487 17.8609 9.03304 19H7.85481C7.18334 17.8199 6.7998 16.4547 6.7998 14.9999C6.7998 10.5264 10.4263 6.8999 14.8998 6.8999C19.3733 6.8999 22.9998 10.5264 22.9998 14.9999C22.9998 19.44 19.4273 23.0456 15 23.0993V22.0992Z" fill="black"/>
</g>
<rect x="5" y="18.2502" width="0.9" height="4.5" transform="rotate(-64.1751 5 18.2502)" fill="black"/>
<rect x="10.2002" y="15.7681" width="0.9" height="4.5" transform="rotate(25.8249 10.2002 15.7681)" fill="black"/>
<defs>
<filter id="filter0_d" x="2.7998" y="6.8999" width="24.2" height="24.1994" filterUnits="userSpaceOnUse" color-interpolation-filters="sRGB">
<feFlood flood-opacity="0" result="BackgroundImageFix"/>
<feColorMatrix in="SourceAlpha" type="matrix" values="0 0 0 0 0 0 0 0 0 0 0 0 0 0 0 0 0 0 127 0"/>
<feOffset dy="4"/>
<feGaussianBlur stdDeviation="2"/>
<feColorMatrix type="matrix" values="0 0 0 0 0 0 0 0 0 0 0 0 0 0 0 0 0 0 0.25 0"/>
<feBlend mode="normal" in2="BackgroundImageFix" result="effect1_dropShadow"/>
<feBlend mode="normal" in="SourceGraphic" in2="effect1_dropShadow" result="shape"/>
</filter>
</defs>
</svg>
