<svg width="40" height="40" viewBox="0 0 40 40" fill="none" xmlns="http://www.w3.org/2000/svg">
<circle cx="20" cy="20" r="19" stroke="white" stroke-width="2"/>
<path d="M28.5489 16.1338H30.467C30.7614 16.1338 31 16.3724 31 16.6668C31 16.9612 30.7614 17.1998 30.467 17.1998H28.5489C28.2545 17.1998 28.0159 16.9612 28.0159 16.6668C28.0159 16.3724 28.2545 16.1338 28.5489 16.1338Z" fill="white"/>
<path d="M9.53033 16.1338H11.4484C11.7428 16.1338 11.9814 16.3724 11.9814 16.6668C11.9814 16.9612 11.7428 17.1998 11.4484 17.1998H9.53033C9.23598 17.1998 8.99732 16.9612 8.99732 16.6668C8.99732 16.3724 9.23598 16.1338 9.53033 16.1338Z" fill="white"/>
<path d="M26.3531 23.0209C26.5613 22.8127 26.8987 22.8127 27.1069 23.0209L28.5021 24.416C28.7102 24.6242 28.7102 24.9616 28.5021 25.1698C28.398 25.2739 28.2616 25.326 28.1252 25.326C27.9888 25.326 27.8524 25.2739 27.7483 25.1698L26.3531 23.7747C26.145 23.5666 26.145 23.2291 26.3531 23.0209Z" fill="white"/>
<path d="M12.4714 9.13951C12.6796 8.93136 13.017 8.93136 13.2252 9.13951L14.5822 10.4965C14.7903 10.7046 14.7903 11.0421 14.5822 11.2502C14.478 11.3542 14.3416 11.4063 14.2052 11.4063C14.0688 11.4063 13.9324 11.3542 13.8283 11.2502L12.4714 9.89329C12.2633 9.68514 12.2633 9.34762 12.4714 9.13951Z" fill="white"/>
<path d="M25.4165 10.4956L26.7727 9.13945C26.9808 8.93138 27.3183 8.93138 27.5265 9.13945C27.7347 9.3476 27.7347 9.68512 27.5265 9.89327L26.1703 11.2495C26.0662 11.3535 25.9298 11.4056 25.7934 11.4056C25.657 11.4056 25.5206 11.3535 25.4165 11.2495C25.2084 11.0413 25.2084 10.7038 25.4165 10.4956Z" fill="white"/>
<path d="M11.496 24.4159L12.886 23.0257C13.0942 22.8176 13.4315 22.8176 13.6398 23.0258C13.8479 23.2339 13.8479 23.5714 13.6398 23.7796L12.2498 25.1696C12.1457 25.2737 12.0092 25.3257 11.8729 25.3257C11.7364 25.3257 11.6001 25.2736 11.496 25.1696C11.2878 24.9615 11.2878 24.624 11.496 24.4159Z" fill="white"/>
<path d="M19.9993 10.4312C23.685 10.4312 26.6836 13.5677 26.6836 17.423C26.6836 19.2154 26.0416 21.1447 24.9221 22.7162C24.0623 23.9231 23.6079 25.2659 23.6079 26.5996V29.9509C23.6079 30.5387 23.1297 31.0169 22.5419 31.0169H17.4566C16.8688 31.0169 16.3906 30.5387 16.3906 29.9509V26.5996C16.3906 25.266 15.9362 23.9231 15.0765 22.7162C13.957 21.1448 13.3149 19.2154 13.3149 17.423C13.315 13.5677 16.3136 10.4312 19.9993 10.4312ZM17.4567 29.951H22.542V29.2538H19.9993C19.7049 29.2538 19.4662 29.0151 19.4662 28.7208C19.4662 28.4264 19.7049 28.1877 19.9993 28.1877H22.542V27.4906H17.4566L17.456 29.9509C17.456 29.951 17.4562 29.951 17.4567 29.951ZM20.7468 20.0064L21.4596 18.4836H18.539L19.2518 20.0064C19.2798 20.0664 19.2965 20.131 19.3009 20.1971L19.7142 26.4245H20.2843L20.6977 20.1971C20.702 20.131 20.7187 20.0664 20.7468 20.0064ZM15.9448 22.0977C16.8968 23.4342 17.4169 24.9265 17.4545 26.4245H18.6458L18.2439 20.3676L17.2183 18.1765C17.141 18.0114 17.1535 17.8182 17.2513 17.6644C17.3491 17.5107 17.5188 17.4175 17.7011 17.4175H22.2976C22.4799 17.4175 22.6495 17.5107 22.7473 17.6644C22.8451 17.8182 22.8576 18.0114 22.7803 18.1764L21.7547 20.3675L21.3528 26.4245H22.5442C22.5818 24.9264 23.1018 23.4342 24.0539 22.0977C25.0331 20.7231 25.6177 18.9755 25.6177 17.423C25.6177 14.1554 23.0973 11.4971 19.9994 11.4971C16.9015 11.4971 14.3811 14.1554 14.3811 17.423C14.381 18.9756 14.9656 20.7232 15.9448 22.0977Z" fill="white"/>
</svg>
