<svg width="22" height="18" viewBox="0 0 22 18" fill="none" xmlns="http://www.w3.org/2000/svg">
<path d="M7.88574 16.7236C7.49512 17.0817 7.03125 17.3665 6.49414 17.5781C5.95703 17.7897 5.31413 17.8955 4.56543 17.8955C3.81673 17.8955 3.14128 17.6839 2.53906 17.2607C1.93685 16.8376 1.44857 16.3167 1.07422 15.6982C0.358073 14.5101 0 13.1429 0 11.5967C0 10.0342 0.236003 8.58561 0.708008 7.25098C1.19629 5.90006 1.77409 4.72819 2.44141 3.73535C3.125 2.72624 3.81673 1.9043 4.5166 1.26953C5.23275 0.634766 5.82682 0.211589 6.29883 0C6.60807 0 6.95801 0.146484 7.34863 0.439453C8.01595 0.927734 8.39844 1.37533 8.49609 1.78223C7.30794 2.97038 6.43717 4.37012 5.88379 5.98145C5.65592 6.68131 5.54199 7.36491 5.54199 8.03223C5.54199 8.69954 5.6071 9.26921 5.7373 9.74121C5.88379 10.1969 6.09538 10.6038 6.37207 10.9619C6.95801 11.7432 7.69857 12.1663 8.59375 12.2314C8.9681 12.8011 9.15527 13.3708 9.15527 13.9404C9.15527 14.5101 9.04134 15.0309 8.81348 15.5029C8.58561 15.9587 8.27637 16.3656 7.88574 16.7236ZM20.5322 16.7236C20.1416 17.0817 19.6777 17.3665 19.1406 17.5781C18.6035 17.7897 17.9606 17.8955 17.2119 17.8955C16.4632 17.8955 15.7878 17.6839 15.1855 17.2607C14.5833 16.8376 14.0951 16.3167 13.7207 15.6982C13.0046 14.5101 12.6465 13.1429 12.6465 11.5967C12.6465 10.0342 12.8825 8.58561 13.3545 7.25098C13.8428 5.90006 14.4206 4.72819 15.0879 3.73535C15.7715 2.72624 16.4632 1.9043 17.1631 1.26953C17.8792 0.634766 18.4733 0.211589 18.9453 0C19.2546 0 19.6045 0.146484 19.9951 0.439453C20.6624 0.927734 21.0449 1.37533 21.1426 1.78223C19.9544 2.97038 19.0837 4.37012 18.5303 5.98145C18.3024 6.68131 18.1885 7.36491 18.1885 8.03223C18.1885 8.69954 18.2536 9.26921 18.3838 9.74121C18.5303 10.1969 18.7419 10.6038 19.0186 10.9619C19.6045 11.7432 20.3451 12.1663 21.2402 12.2314C21.6146 12.8011 21.8018 13.3708 21.8018 13.9404C21.8018 14.5101 21.6878 15.0309 21.46 15.5029C21.2321 15.9587 20.9229 16.3656 20.5322 16.7236Z" fill="white"/>
</svg>
