<svg width="22" height="18" viewBox="0 0 22 18" fill="none" xmlns="http://www.w3.org/2000/svg">
<path d="M1.26953 1.17188C1.66016 0.813802 2.12402 0.528971 2.66113 0.317383C3.19824 0.105794 3.84115 0 4.58984 0C5.33854 0 6.014 0.211589 6.61621 0.634766C7.21842 1.05794 7.70671 1.57878 8.08105 2.19727C8.7972 3.38542 9.15527 4.76074 9.15527 6.32324C9.15527 7.86947 8.91113 9.31803 8.42285 10.6689C7.95085 12.0036 7.37305 13.1755 6.68945 14.1846C6.02214 15.1774 5.3304 15.9912 4.61426 16.626C3.91439 17.2607 3.32845 17.6839 2.85645 17.8955C2.5472 17.8955 2.19727 17.749 1.80664 17.4561C1.13932 16.9678 0.756836 16.5202 0.65918 16.1133C1.84733 14.9251 2.7181 13.5254 3.27148 11.9141C3.49935 11.2142 3.61328 10.5306 3.61328 9.86328C3.61328 9.19596 3.54004 8.63444 3.39355 8.17871C3.26335 7.70671 3.0599 7.29167 2.7832 6.93359C2.19727 6.15234 1.45671 5.72917 0.561523 5.66406C0.187174 5.0944 0 4.52474 0 3.95508C0 3.38542 0.113932 2.87272 0.341797 2.41699C0.569661 1.94499 0.878906 1.52995 1.26953 1.17188ZM13.916 1.17188C14.3066 0.813802 14.7705 0.528971 15.3076 0.317383C15.8447 0.105794 16.4876 0 17.2363 0C17.985 0 18.6605 0.211589 19.2627 0.634766C19.8649 1.05794 20.3532 1.57878 20.7275 2.19727C21.4437 3.38542 21.8018 4.76074 21.8018 6.32324C21.8018 7.86947 21.5576 9.31803 21.0693 10.6689C20.5973 12.0036 20.0195 13.1755 19.3359 14.1846C18.6686 15.1774 17.9769 15.9912 17.2607 16.626C16.5609 17.2607 15.9749 17.6839 15.5029 17.8955C15.1937 17.8955 14.8438 17.749 14.4531 17.4561C13.7858 16.9678 13.4033 16.5202 13.3057 16.1133C14.4938 14.9251 15.3646 13.5254 15.918 11.9141C16.1458 11.2142 16.2598 10.5306 16.2598 9.86328C16.2598 9.19596 16.1865 8.63444 16.04 8.17871C15.9098 7.70671 15.7064 7.29167 15.4297 6.93359C14.8438 6.15234 14.1032 5.72917 13.208 5.66406C12.8337 5.0944 12.6465 4.52474 12.6465 3.95508C12.6465 3.38542 12.7604 2.87272 12.9883 2.41699C13.2161 1.94499 13.5254 1.52995 13.916 1.17188Z" fill="white"/>
</svg>
