<svg width="22" height="20" viewBox="0 0 22 20" fill="none" xmlns="http://www.w3.org/2000/svg">
<path d="M12.1893 0.174801C11.8021 -0.0651831 11.3439 -0.0573575 10.9635 0.19393C10.9452 0.205668 10.9278 0.21958 10.9119 0.234362L5.53634 5.21794H1.31762C1.09823 5.21794 0.920898 5.41228 0.920898 5.6527V13.913C0.920898 14.0287 0.962554 14.1391 1.03714 14.2204C1.11172 14.3017 1.21209 14.3478 1.31762 14.3478L5.52682 14.3456L10.8996 19.7539C10.9194 19.7739 10.9409 19.7913 10.9635 19.8061C11.1587 19.9352 11.3749 20 11.5911 20C11.7962 19.9996 12.0009 19.9417 12.1893 19.8252C12.5857 19.58 12.8225 19.1322 12.8225 18.6275V1.37298C12.8225 0.868233 12.5857 0.420437 12.1893 0.174801ZM12.0291 18.6275C12.0291 18.8149 11.943 18.9796 11.7994 19.0688C11.7379 19.1066 11.582 19.1796 11.4026 19.0801L6.07826 13.72V11.7392C6.07826 11.4988 5.90093 11.3045 5.68154 11.3045C5.46215 11.3045 5.28482 11.4988 5.28482 11.7392V13.4765L1.71434 13.4783V6.08745H5.28482V7.82647C5.28482 8.06688 5.46215 8.26122 5.68154 8.26122C5.90093 8.26122 6.07826 8.06688 6.07826 7.82647V5.85442L11.3963 0.924316C11.5792 0.819106 11.7375 0.893883 11.7994 0.932142C11.943 1.02127 12.0291 1.18604 12.0291 1.37298V18.6275Z" fill="white"/>
<path d="M16.3126 1.76283C16.1051 1.68587 15.8798 1.8076 15.8091 2.03498C15.7389 2.26192 15.85 2.5093 16.0575 2.58668C18.8746 3.63487 20.7674 6.52686 20.7674 9.78316C20.7674 13.0364 18.8782 15.9288 16.0666 16.9801C15.8595 17.0575 15.7484 17.3044 15.8195 17.5322C15.8758 17.7126 16.0297 17.8265 16.1948 17.8265C16.2372 17.8265 16.2805 17.8191 16.3229 17.8031C19.4554 16.6323 21.5604 13.4094 21.5604 9.7836C21.5608 6.15384 19.4518 2.93101 16.3126 1.76283Z" fill="white"/>
<path d="M17.9906 9.78275C17.9906 7.1864 16.4002 4.86916 14.123 4.14747C13.9116 4.08182 13.693 4.21355 13.6319 4.44484C13.5712 4.67526 13.6922 4.91655 13.9032 4.98307C15.8428 5.59737 17.1976 7.57116 17.1976 9.78275C17.1976 11.9943 15.8428 13.9681 13.9032 14.5824C13.6926 14.6489 13.5712 14.8902 13.6319 15.1207C13.6823 15.3111 13.8405 15.435 14.0131 15.435C14.0496 15.435 14.0865 15.4293 14.123 15.418C16.4006 14.6963 17.9906 12.3791 17.9906 9.78275Z" fill="white"/>
</svg>
