<svg width="24" height="20" viewBox="0 0 24 20" fill="none" xmlns="http://www.w3.org/2000/svg">
<path d="M20.179 9.56548L23.3497 6.39482C23.5196 6.22483 23.5196 5.95007 23.3497 5.78008C23.1797 5.61009 22.9049 5.61009 22.7349 5.78008L19.5643 8.95074L16.3936 5.78008C16.2236 5.61009 15.9488 5.61009 15.7789 5.78008C15.6089 5.95007 15.6089 6.22483 15.7789 6.39482L18.9495 9.56548L15.7789 12.7361C15.6089 12.9061 15.6089 13.1809 15.7789 13.3509C15.8636 13.4357 15.9749 13.4783 16.0862 13.4783C16.1975 13.4783 16.3088 13.4357 16.3936 13.3509L19.5643 10.1802L22.7349 13.3509C22.8197 13.4357 22.931 13.4783 23.0423 13.4783C23.1536 13.4783 23.2649 13.4357 23.3497 13.3509C23.5196 13.1809 23.5196 12.9061 23.3497 12.7361L20.179 9.56548Z" fill="white"/>
<path d="M12.3487 0.174801C11.9249 -0.065183 11.4223 -0.0573576 11.0054 0.19393C10.9854 0.205668 10.9662 0.219581 10.9488 0.234362L5.05792 5.21794H0.434754C0.194335 5.21794 0 5.41228 0 5.6527V13.913C0 14.0287 0.0456491 14.1391 0.127383 14.2204C0.209116 14.3017 0.319109 14.3478 0.434754 14.3478L5.04749 14.3456L10.9354 19.7539C10.9571 19.7739 10.9806 19.7913 11.0054 19.8061C11.2193 19.9352 11.4562 20 11.6931 20C11.9179 19.9996 12.1422 19.9417 12.3487 19.8252C12.7831 19.58 13.0426 19.1322 13.0426 18.6275V1.37298C13.0426 0.868233 12.7831 0.420437 12.3487 0.174801ZM12.1731 18.6275C12.1731 18.8149 12.0788 18.9796 11.9214 19.0688C11.854 19.1066 11.6831 19.1796 11.4866 19.0801L5.6518 13.72V11.7392C5.6518 11.4988 5.45746 11.3045 5.21704 11.3045C4.97662 11.3045 4.78229 11.4988 4.78229 11.7392V13.4765L0.869507 13.4783V6.08745H4.78229V7.82647C4.78229 8.06688 4.97662 8.26122 5.21704 8.26122C5.45746 8.26122 5.6518 8.06688 5.6518 7.82647V5.85442L11.4797 0.924316C11.6797 0.819106 11.8536 0.893884 11.9214 0.932142C12.0788 1.02127 12.1731 1.1856 12.1731 1.37298V18.6275Z" fill="white"/>
</svg>
