<svg width="30" height="30" viewBox="0 0 30 30" fill="none" xmlns="http://www.w3.org/2000/svg">
<g clip-path="url(#clip0)">
<path d="M29.5231 0.00118818C29.481 0.000566077 29.439 0.00533554 29.3981 0.0156002L23.5329 1.482C23.1682 1.57335 23.0424 2.02748 23.3081 2.29343L25.1411 4.12656L19.8175 9.45011C19.3086 9.93877 20.062 10.692 20.5506 10.1832L25.8741 4.85961L27.7072 6.69253C27.9732 6.95827 28.4273 6.83251 28.5187 6.46775L29.9851 0.602555C30.0606 0.300109 29.8347 0.00606132 29.5231 0.00118818ZM0.505682 0.00160292C0.182188 -0.0129128 -0.0639575 0.288289 0.0146349 0.602451L1.48104 6.46775C1.57238 6.83251 2.02652 6.95827 2.29246 6.69253L4.1256 4.85961L9.44914 10.1832C9.9378 10.692 10.6911 9.93867 10.1822 9.45011L4.85864 4.12656L6.69156 2.29343C6.9573 2.02748 6.83154 1.57335 6.46678 1.482L0.601278 0.0156002C0.569965 0.00782395 0.537927 0.00305449 0.505682 0.00160292ZM1.14904 1.15011L5.40288 2.21349L2.21242 5.40395L1.14904 1.15011ZM28.8505 1.15011L27.7871 5.40395L24.5966 2.21349L28.8505 1.15011ZM27.7671 1.98456C27.7436 1.98394 27.7203 1.98642 27.6976 1.99202L25.7914 2.43185C25.4545 2.50961 25.5711 3.01486 25.908 2.9371L27.8142 2.49707C28.1137 2.43258 28.0732 1.99337 27.7671 1.98456ZM2.25068 1.98476C1.93413 1.97212 1.87576 2.42978 2.18526 2.49707L4.09148 2.9371C4.42835 3.01486 4.545 2.50961 4.20813 2.43185L2.3019 1.99202C2.28521 1.98798 2.268 1.98549 2.25068 1.98476ZM20.1785 19.6613C19.7132 19.6616 19.4839 20.2272 19.8175 20.5515L25.1411 25.8753L23.3081 27.7082C23.0424 27.9742 23.1682 28.4283 23.5329 28.5197L29.3981 29.9861C29.7524 30.0746 30.0734 29.7538 29.985 29.3994L28.5186 23.5342C28.4658 23.3233 28.2788 23.1734 28.0615 23.1679C27.929 23.1646 27.8009 23.2157 27.7071 23.3094L25.8742 25.1424L20.5505 19.8186C20.4529 19.7179 20.3186 19.6612 20.1785 19.6613ZM9.8055 19.6615C9.67081 19.6656 9.54297 19.7219 9.44903 19.8185L4.12539 25.1422L2.29246 23.3092C2.19998 23.2167 2.07411 23.1656 1.94336 23.1675C1.72397 23.1707 1.53423 23.3211 1.48104 23.534L0.0146349 29.3993C-0.0738074 29.7536 0.24699 30.0744 0.601278 29.986L6.46667 28.5196C6.83143 28.4282 6.9572 27.9741 6.69146 27.7081L4.85854 25.8752L10.1821 20.5514C10.5212 20.2219 10.2782 19.6475 9.8055 19.6615ZM2.21242 24.5978L5.40288 27.7882L1.14904 28.8515L2.21242 24.5978ZM27.7871 24.5978L28.8505 28.8514L24.5966 27.7881L27.7871 24.5978ZM4.16095 27.0571C4.13752 27.0565 4.11419 27.059 4.09148 27.0646L2.18526 27.5044C1.83937 27.5763 1.95954 28.0964 2.3019 28.0094L4.20813 27.5696C4.50767 27.5051 4.46723 27.0658 4.16095 27.0571ZM25.8568 27.0573C25.5402 27.0446 25.4819 27.5023 25.7914 27.5696L27.6976 28.0094C28.04 28.0964 28.1601 27.5763 27.8142 27.5044L25.908 27.0646C25.8912 27.0604 25.8741 27.058 25.8568 27.0573Z" fill="white"/>
</g>
<defs>
<clipPath id="clip0">
<rect width="30" height="30" fill="white"/>
</clipPath>
</defs>
</svg>
