<svg width="33" height="30" viewBox="0 0 33 30" fill="none" xmlns="http://www.w3.org/2000/svg">
<path d="M23.1625 24.2055C22.7714 24.1014 22.3697 24.3311 22.2647 24.7195C22.1598 25.1071 22.3918 25.5063 22.7832 25.6103C23.1743 25.7144 23.5768 25.4838 23.6818 25.0963C23.7865 24.7079 23.5542 24.3095 23.1625 24.2055V24.2055Z" fill="white"/>
<path d="M2.07246 25.6103C2.46414 25.5063 2.69583 25.1071 2.59088 24.7195C2.48594 24.3311 2.08422 24.1014 1.6934 24.2055C1.30171 24.3092 1.06917 24.7079 1.17412 25.0963C1.27878 25.4838 1.68164 25.7144 2.07246 25.6103V25.6103Z" fill="white"/>
<path d="M31.9957 20.2757C32.4771 18.7091 32.7125 17.236 32.7125 15.7885C32.7125 11.5895 30.9812 7.62205 27.8371 4.61683C24.7729 1.68792 20.6643 0 16.3636 0C7.55362 0 0.0147733 7.04945 0.0147733 15.7885C0.0147733 17.2362 0.25023 18.7096 0.731879 20.2767C0.147108 20.7333 -0.137038 21.5081 0.0644613 22.256L1.7179 28.3556C1.98956 29.3615 3.03501 29.9679 4.06423 29.6961L6.02104 29.1773C6.46948 29.8218 7.29395 30.1474 8.09595 29.9356L10.5636 29.2813C11.5839 29.0109 12.1916 27.9699 11.9182 26.9612L9.60432 18.4209C9.33066 17.4118 8.27747 16.8108 7.25749 17.0814L4.79057 17.735C4.53064 17.8039 4.29768 17.9229 4.09918 18.0784C3.97184 17.4905 3.89244 16.9073 3.86173 16.3318C4.57059 16.1113 5.09993 15.4994 5.17509 14.7384C5.70193 9.39762 10.7212 5.05239 16.3636 5.05239C22.0061 5.05239 27.0254 9.39762 27.5522 14.7384C27.6271 15.4994 28.1567 16.1113 28.8656 16.3318C28.8348 16.9073 28.7554 17.4905 28.6281 18.0784C28.4294 17.9229 28.1966 17.8039 27.9367 17.735L25.4698 17.0814C24.4491 16.811 23.3964 17.4118 23.123 18.4209L20.8091 26.9612C20.5357 27.9701 21.1434 29.0109 22.1637 29.2813L24.6318 29.9356C25.4306 30.1467 26.2561 29.8242 26.7062 29.1773L28.6636 29.6963C29.6963 29.9689 30.739 29.3568 31.0091 28.3561L32.6628 22.2553C32.8646 21.5071 32.5792 20.7313 31.9957 20.2757V20.2757ZM5.12091 18.955L7.58808 18.3012C7.92841 18.2108 8.27922 18.4113 8.37061 18.7476L10.6842 27.2879C10.7754 27.6242 10.5729 27.9709 10.2328 28.0613L9.61581 28.2247L8.45925 23.9543C8.36811 23.6175 8.01805 23.4175 7.67722 23.5076C7.3364 23.598 7.13415 23.9442 7.22553 24.2812L8.38234 28.5519L7.76561 28.7153C7.42578 28.8052 7.07472 28.6047 6.98334 28.2684C6.98334 28.2682 6.98334 28.2679 6.98334 28.2679L4.66897 19.7281C4.57783 19.392 4.78058 19.0451 5.12091 18.955ZM5.58433 27.9852L3.73414 28.4758C3.39381 28.5657 3.04325 28.3674 2.95161 28.0289L1.29842 21.9296C1.21253 21.6106 1.39081 21.277 1.70966 21.1681C1.72439 21.1629 1.73987 21.1585 1.75036 21.1558L3.57459 20.672C3.76085 21.1318 3.42078 20.078 5.58433 27.9852ZM1.30891 16.4199H2.58732C2.643 17.4263 2.83101 18.4503 3.14862 19.4772L1.92115 19.8029C1.56709 18.6249 1.36534 17.5088 1.30891 16.4199ZM28.8234 14.6154C28.2196 8.49687 22.6036 3.78917 16.3636 3.78917C10.1202 3.78917 4.50717 8.49959 3.90368 14.6157C3.87371 14.9192 3.59881 15.1569 3.27721 15.1569H1.30766C1.66472 7.56254 8.4133 1.26298 16.3636 1.26298C24.3137 1.26298 31.0626 7.56254 31.4194 15.1569H29.4496C29.1285 15.1569 28.8533 14.9192 28.8234 14.6154ZM31.4181 16.4199C31.3617 17.5088 31.1599 18.6249 30.8061 19.8029L29.5784 19.4775C29.896 18.4501 30.084 17.4263 30.1397 16.4199H31.4181ZM25.7439 28.2682C25.7439 28.2682 25.7439 28.2682 25.7437 28.2682C25.6526 28.6045 25.3015 28.805 24.9622 28.7153L24.3449 28.5516L25.5018 24.2812C25.5931 23.9442 25.3909 23.598 25.0501 23.5076C24.7095 23.4175 24.3592 23.6175 24.268 23.9543L23.1112 28.2247L22.4945 28.061C22.1544 27.9709 21.9517 27.624 22.0428 27.2879L24.3567 18.7476C24.4331 18.4659 24.6918 18.2794 24.9739 18.2794C25.0283 18.2794 25.084 18.2866 25.1392 18.3012L27.6061 18.9547C27.9465 19.0449 28.1495 19.3918 28.0583 19.7278L25.7439 28.2682ZM31.4289 21.9289L29.7754 28.0294C29.684 28.3677 29.3327 28.5657 28.9936 28.4761L27.143 27.9852C29.3073 20.075 28.9662 21.1323 29.1525 20.672C31.0958 21.1876 30.9824 21.1558 31.0224 21.1698C31.3362 21.277 31.5148 21.6108 31.4289 21.9289Z" fill="white"/>
</svg>
